<?xml version="1.0" encoding="utf-8"?>
<!-- Generator: Adobe Illustrator 23.0.3, SVG Export Plug-In . SVG Version: 6.00 Build 0)  -->
<svg version="1.1" id="Layer_1" xmlns="http://www.w3.org/2000/svg" xmlns:xlink="http://www.w3.org/1999/xlink" x="0px" y="0px"
	 viewBox="0 0 336.2 193.5" style="enable-background:new 0 0 336.2 193.5;" xml:space="preserve">
<style type="text/css">
	.st0{fill:#F7941D;}
	.st1{fill:#FFFFFF;}
	.st2{fill:url(#SVGID_1_);}
	.st3{fill:url(#SVGID_2_);}
	.st4{fill:#BE1E2D;}
	.st5{fill:none;stroke:#FFFFFF;stroke-width:2;stroke-miterlimit:10;}
	.st6{fill:url(#SVGID_3_);}
	.st7{fill:#BCBEC0;}
	.st8{fill:#92278F;}
	.st9{fill:#A7A9AC;}
	.st10{fill:none;stroke:#FFFFFF;stroke-width:1.5528;stroke-miterlimit:10;}
	.st11{fill:url(#SVGID_4_);}
	.st12{fill:#91D9F8;}
	.st13{fill:url(#SVGID_5_);}
	.st14{fill:url(#SVGID_6_);}
	.st15{fill:url(#SVGID_7_);}
	.st16{fill:url(#SVGID_8_);}
	.st17{fill:url(#SVGID_9_);}
	.st18{fill:url(#SVGID_10_);}
	.st19{fill:none;stroke:#FFFFFF;stroke-width:0.887;stroke-miterlimit:10;}
	.st20{fill:url(#SVGID_11_);}
	.st21{fill:#1B75BC;}
	.st22{fill:none;stroke:#FFFFFF;stroke-width:2.8918;stroke-miterlimit:10;}
</style>
<g>
	<text transform="matrix(1 0 0 1 706.7571 206.2617)" style="fill:#F15A29; font-family:'ArialMT'; font-size:31.8945px;">PrimeDiscovery</text>
</g>
<text transform="matrix(1 0 0 1 686.0472 360.9737)" style="fill:#00AEEF; font-family:'ArialMT'; font-size:35px;">PRIME </text>
<text transform="matrix(1 0 0 1 784.6371 360.9737)" style="fill:#00AEEF; font-family:'ArialMT'; font-size:35px;">DISCOVERY</text>
<path class="st0" d="M674,330.3c-4-10.7-25.2-12.7-47.3-4.4s-36.7,23.7-32.6,34.5s25.2,12.7,47.3,4.4C663.4,356.5,678,341,674,330.3
	z"/>
<g>
	<path class="st1" d="M644.3,335.3v-22.8h-36.8V358h14.5v20.8h36.8v-43.5L644.3,335.3L644.3,335.3z"/>
</g>
<g>
	
		<linearGradient id="SVGID_1_" gradientUnits="userSpaceOnUse" x1="617.0746" y1="-124.8447" x2="629.3915" y2="-145.0445" gradientTransform="matrix(1 0 0 -1 0 196)">
		<stop  offset="0" style="stop-color:#8ED8F8"/>
		<stop  offset="0.1413" style="stop-color:#88D6F8"/>
		<stop  offset="0.3065" style="stop-color:#76D1F7"/>
		<stop  offset="0.4836" style="stop-color:#54CAF5"/>
		<stop  offset="0.6692" style="stop-color:#00C0F3"/>
		<stop  offset="0.8593" style="stop-color:#00B5F1"/>
		<stop  offset="1" style="stop-color:#00AEEF"/>
	</linearGradient>
	<polygon class="st2" points="639.1,334.2 639.1,318.2 612.8,318.2 612.8,352.6 623.7,352.6 623.7,334.2 	"/>
</g>
<g>
	
		<linearGradient id="SVGID_2_" gradientUnits="userSpaceOnUse" x1="-885.4874" y1="1234.1064" x2="-873.1707" y2="1213.9071" gradientTransform="matrix(-1 0 0 1 -236.1322 -862.0966)">
		<stop  offset="0" style="stop-color:#CAEBFC"/>
		<stop  offset="0.2695" style="stop-color:#90D9F8"/>
		<stop  offset="0.8836" style="stop-color:#00B3F0"/>
		<stop  offset="1" style="stop-color:#00AEEF"/>
	</linearGradient>
	<polygon class="st3" points="627.3,358.6 627.3,374.6 653.6,374.6 653.6,340.2 642.7,340.2 642.7,358.6 	"/>
</g>
<polygon class="st4" points="762.7,-1 726,-1 726,-24.7 742.7,-43.7 762.7,-43.7 "/>
<polyline class="st5" points="730,-4 730,-22.3 744.3,-22.3 744.3,-40.3 "/>
<linearGradient id="SVGID_3_" gradientUnits="userSpaceOnUse" x1="790.6795" y1="218.325" x2="752.6553" y2="218.325" gradientTransform="matrix(1 0 0 -1 0 196)">
	<stop  offset="0" style="stop-color:#FFFFFF"/>
	<stop  offset="0.2555" style="stop-color:#FCFCFC"/>
	<stop  offset="0.4713" style="stop-color:#F1F2F2"/>
	<stop  offset="0.6727" style="stop-color:#E0E1E2"/>
	<stop  offset="0.8641" style="stop-color:#C7C9CB"/>
	<stop  offset="1" style="stop-color:#B1B3B6"/>
</linearGradient>
<rect x="764.7" y="-43.7" class="st6" width="24.7" height="42.7"/>
<path class="st7" d="M718.5-333.3c-22.3,0-40.5-18.2-40.5-40.5s18.2-40.5,40.5-40.5c17.5,0,33,11.2,38.5,27.9l-3.7,1.2
	c-5-15.1-18.9-25.2-34.8-25.2c-20.2,0-36.6,16.4-36.6,36.6s16.4,36.6,36.6,36.6c15.7,0,29.6-10,34.7-24.8l3.7,1.3
	C751.2-344.3,735.8-333.3,718.5-333.3z"/>
<path class="st8" d="M752-373.8c0-18.5-15-33.5-33.5-33.5s-33.5,15-33.5,33.5c0,18.5,15,33.5,33.5,33.5S752-355.3,752-373.8z"/>
<g>
	<path class="st1" d="M692.8-364.2v-17.3h4.8c4.1,0,6,1.9,6,5.2c0,3.2-2,5.2-6,5.2h-1.5v6.9L692.8-364.2L692.8-364.2z M696.1-373.9
		h1.8c1.6,0,2.4-0.8,2.4-2.4s-0.8-2.4-2.4-2.4h-1.8V-373.9z"/>
	<path class="st1" d="M713.7-364.2l-2.9-7h-1.6v7h-3.3v-17.3h4.8c4,0,5.9,1.9,5.9,5.2c0,2.1-0.8,3.7-2.6,4.4l3.2,7.7L713.7-364.2
		L713.7-364.2z M709.2-374h1.7c1.5,0,2.3-0.7,2.3-2.4c0-1.7-0.9-2.4-2.3-2.4h-1.7V-374z"/>
	<path class="st1" d="M719.4-364.2v-17.3h3.3v17.3H719.4z"/>
	<path class="st1" d="M726.1-364.2v-17.3h4.6l3,11.3h0l3-11.3h4.6v17.3h-2.8v-13.6h0l-3.5,13.6h-2.5l-3.5-13.6h0v13.6H726.1z"/>
	<path class="st1" d="M744.5-364.2v-17.3h9v2.9h-5.7v4h4.4v2.9h-4.4v4.5h6v2.9L744.5-364.2L744.5-364.2z"/>
</g>
<g>
	<path class="st9" d="M755.4-381.5h4.4c3.1,0,4.7,1.7,4.7,5.2v6.8c0,3.5-1.6,5.2-4.7,5.2h-4.4V-381.5z M758.4-366.7h1
		c1.6,0,2.1-0.6,2.1-2.4v-7.6c0-1.8-0.5-2.4-2.1-2.4h-1V-366.7z"/>
	<path class="st9" d="M767.5-364.2v-17.3h3v17.3H767.5z"/>
	<path class="st9" d="M779-377.2c-0.1-1.5-0.9-1.9-1.6-1.9c-1,0-1.5,0.6-1.5,1.7c0,2.9,6,4.4,6,9c0,2.9-1.9,4.4-4.7,4.4
		c-2.8,0-4.3-2.2-4.5-4.8l2.8-0.4c0.1,1.8,0.8,2.6,1.8,2.6c1,0,1.7-0.5,1.7-1.6c0-3.4-6-4.3-6-9.3c0-2.8,1.7-4.3,4.6-4.3
		c2.4,0,3.8,1.8,4.1,4.2L779-377.2z"/>
	<path class="st9" d="M789.9-375.7v-1.3c0-1.5-0.7-2.1-1.4-2.1c-1.2,0-1.6,0.6-1.6,1.9v8.8c0,1.3,0.4,1.9,1.6,1.9
		c1.1,0,1.4-0.6,1.4-1.8v-2.1h3v2c0,2.4-1.4,4.4-4.4,4.4c-3.1,0-4.5-2-4.5-4.4v-8.9c0-2.4,1.4-4.4,4.5-4.4c3,0,4.4,2.1,4.4,4.7v1.3
		L789.9-375.7L789.9-375.7z"/>
	<path class="st9" d="M795.6-377.3c0-2.4,1.4-4.4,4.5-4.4c3.1,0,4.5,2,4.5,4.4v8.9c0,2.4-1.4,4.4-4.5,4.4c-3.1,0-4.5-2-4.5-4.4
		V-377.3z M798.6-368.5c0,1.3,0.4,1.9,1.6,1.9s1.6-0.6,1.6-1.9v-8.8c0-1.3-0.4-1.9-1.6-1.9s-1.6,0.6-1.6,1.9V-368.5z"/>
	<path class="st9" d="M813.4-381.5h2.9l-3.6,17.3h-3l-3.6-17.3h2.9l2.2,12h0L813.4-381.5z"/>
	<path class="st9" d="M817.8-364.2v-17.3h7.9v2.6h-5v4.5h3.8v2.6h-3.8v5.1h5.3v2.6L817.8-364.2L817.8-364.2z"/>
	<path class="st9" d="M831.1-364.2h-3v-17.3h4.2c3.3,0,5,1.4,5,5.1c0,2.8-1.1,3.9-2.1,4.4l2.5,7.8h-3l-2.1-7.1c-0.4,0-1,0.1-1.5,0.1
		L831.1-364.2L831.1-364.2z M831.1-373.7h1c1.6,0,2.2-0.6,2.2-2.7s-0.6-2.7-2.2-2.7h-1V-373.7z"/>
	<path class="st9" d="M844.8-364.2h-3v-7.2l-3.6-10.1h3l2.1,6.6h0l2-6.6h3l-3.6,10.1L844.8-364.2L844.8-364.2z"/>
</g>
<path class="st10" d="M825.5-384.7"/>
<path class="st10" d="M681.8-384.7"/>
<rect x="764" y="-40.3" class="st1" width="32" height="4"/>
<rect x="764" y="-32.3" class="st1" width="32" height="4"/>
<rect x="764" y="-24.3" class="st1" width="32" height="4"/>
<rect x="764" y="-16.3" class="st1" width="32" height="4"/>
<rect x="764" y="-8.3" class="st1" width="32" height="4"/>
<text transform="matrix(1 0 0 1 704.2982 33.3951)" class="st4" style="font-family:'ArialMT'; font-size:31.7343px;">PRIME</text>
<text transform="matrix(1 0 0 1 704.2982 51.5251)" style="fill:#808285; font-family:'ArialMT'; font-size:16.6227px;">DISCOVERY</text>
<path class="st8" d="M647.4,215.6h-15l4.7-21.3c2.6-11.8,7.8-20.5,15.6-25.9c10.8-7.5,23.1-5.6,23.1-5.6l-3.3,15.1h-3.6
	c0,0-5.5-0.2-9.7,2.8c-4,2.8-6.1,8.9-7.1,13.6L647.4,215.6z"/>
<path class="st8" d="M680.5,162.6h15l-4.7,21.3c-2.6,11.8-7.8,20.5-15.6,25.9c-10.8,7.5-23.1,5.6-23.1,5.6l3.3-15.1h3.6
	c0,0,5.5,0.2,9.7-2.8c4-2.8,6.1-8.9,7.1-13.6L680.5,162.6z"/>
<g>
	
		<image style="overflow:visible;opacity:0.43;enable-background:new    ;" width="825" height="492" xlink:href="2016455DD651F26D.png"  transform="matrix(0.2376 0 0 0.2376 633.3916 -267.8266)">
	</image>
	<g>
		
			<linearGradient id="SVGID_4_" gradientUnits="userSpaceOnUse" x1="637.68" y1="405.495" x2="824.99" y2="405.495" gradientTransform="matrix(1 0 0 -1 0 196)">
			<stop  offset="0.2649" style="stop-color:#008BCD"/>
			<stop  offset="0.3081" style="stop-color:#0086C8"/>
			<stop  offset="1" style="stop-color:#2B3990"/>
		</linearGradient>
		<rect x="637.7" y="-263" class="st11" width="187.3" height="107"/>
	</g>
</g>
<path class="st12" d="M711.5-187.9c-12.8,0-23.1-10.4-23.1-23.1s10.4-23.1,23.1-23.1c10,0,18.9,6.4,22,15.9l-2.1,0.7
	c-2.8-8.6-10.8-14.4-19.9-14.4c-11.5,0-20.9,9.4-20.9,20.9c0,11.5,9.4,20.9,20.9,20.9c9,0,16.9-5.7,19.8-14.1l2.1,0.7
	C730.2-194.2,721.4-187.9,711.5-187.9z"/>
<radialGradient id="SVGID_5_" cx="989.6431" cy="306.4477" r="33.6139" gradientTransform="matrix(0.7433 0 0 -0.7433 -31.0237 4.1651)" gradientUnits="userSpaceOnUse">
	<stop  offset="0" style="stop-color:#008BCD"/>
	<stop  offset="0.1584" style="stop-color:#0075BA"/>
	<stop  offset="0.3441" style="stop-color:#1061AA"/>
	<stop  offset="0.5254" style="stop-color:#1F509E"/>
	<stop  offset="0.6988" style="stop-color:#264396"/>
	<stop  offset="0.8608" style="stop-color:#293B91"/>
	<stop  offset="1" style="stop-color:#2B3990"/>
</radialGradient>
<path class="st13" d="M730.7-211c0-10.6-8.6-19.1-19.1-19.1c-10.6,0-19.1,8.6-19.1,19.1c0,10.6,8.6,19.1,19.1,19.1
	C722.1-191.9,730.7-200.5,730.7-211z"/>
<g>
	
		<linearGradient id="SVGID_6_" gradientUnits="userSpaceOnUse" x1="695.6886" y1="406.515" x2="788.9866" y2="406.515" gradientTransform="matrix(1 0 0 -1 0 196)">
		<stop  offset="0.2649" style="stop-color:#008BCD"/>
		<stop  offset="0.3081" style="stop-color:#0086C8"/>
		<stop  offset="1" style="stop-color:#2B3990"/>
	</linearGradient>
	<path class="st14" d="M696.9-205.6v-9.9h2.7c2.3,0,3.5,1.1,3.5,2.9s-1.1,2.9-3.5,2.9h-0.8v4L696.9-205.6L696.9-205.6z M698.8-211.1
		h1c0.9,0,1.4-0.5,1.4-1.4s-0.5-1.4-1.4-1.4h-1V-211.1z"/>
	
		<linearGradient id="SVGID_7_" gradientUnits="userSpaceOnUse" x1="695.6893" y1="406.515" x2="788.9727" y2="406.515" gradientTransform="matrix(1 0 0 -1 0 196)">
		<stop  offset="0.2649" style="stop-color:#008BCD"/>
		<stop  offset="0.3081" style="stop-color:#0086C8"/>
		<stop  offset="1" style="stop-color:#2B3990"/>
	</linearGradient>
	<path class="st15" d="M708.8-205.6l-1.6-4h-0.9v4h-1.9v-9.9h2.7c2.3,0,3.3,1.1,3.3,2.9c0,1.2-0.4,2.1-1.5,2.5l1.9,4.4L708.8-205.6
		L708.8-205.6z M706.2-211.1h1c0.8,0,1.3-0.4,1.3-1.4s-0.5-1.4-1.3-1.4h-1V-211.1z"/>
	
		<linearGradient id="SVGID_8_" gradientUnits="userSpaceOnUse" x1="695.6913" y1="406.515" x2="788.9639" y2="406.515" gradientTransform="matrix(1 0 0 -1 0 196)">
		<stop  offset="0.2649" style="stop-color:#008BCD"/>
		<stop  offset="0.3081" style="stop-color:#0086C8"/>
		<stop  offset="1" style="stop-color:#2B3990"/>
	</linearGradient>
	<path class="st16" d="M712.1-205.6v-9.9h1.9v9.9H712.1z"/>
	
		<linearGradient id="SVGID_9_" gradientUnits="userSpaceOnUse" x1="695.6865" y1="406.515" x2="788.9786" y2="406.515" gradientTransform="matrix(1 0 0 -1 0 196)">
		<stop  offset="0.2649" style="stop-color:#008BCD"/>
		<stop  offset="0.3081" style="stop-color:#0086C8"/>
		<stop  offset="1" style="stop-color:#2B3990"/>
	</linearGradient>
	<path class="st17" d="M715.9-205.6v-9.9h2.6l1.7,6.5h0l1.7-6.5h2.6v9.9H723v-7.8h0l-2,7.8h-1.4l-2-7.8h0v7.8H715.9z"/>
	
		<linearGradient id="SVGID_10_" gradientUnits="userSpaceOnUse" x1="695.6914" y1="406.51" x2="788.9669" y2="406.51" gradientTransform="matrix(1 0 0 -1 0 196)">
		<stop  offset="0.2649" style="stop-color:#008BCD"/>
		<stop  offset="0.3081" style="stop-color:#0086C8"/>
		<stop  offset="1" style="stop-color:#2B3990"/>
	</linearGradient>
	<path class="st18" d="M726.4-205.6v-9.9h5.2v1.7h-3.3v2.3h2.5v1.7h-2.5v2.6h3.4v1.7L726.4-205.6L726.4-205.6z"/>
</g>
<g>
	<path class="st12" d="M732.6-215.4h2.5c1.8,0,2.7,1,2.7,3v3.9c0,2-0.9,3-2.7,3h-2.5V-215.4z M734.3-207h0.6c0.9,0,1.2-0.3,1.2-1.4
		v-4.3c0-1-0.3-1.4-1.2-1.4h-0.6V-207z"/>
	<path class="st12" d="M739.6-205.6v-9.9h1.7v9.9H739.6z"/>
	<path class="st12" d="M746.1-213c-0.1-0.9-0.5-1.1-0.9-1.1c-0.5,0-0.8,0.4-0.8,1c0,1.7,3.5,2.5,3.5,5.2c0,1.6-1.1,2.5-2.7,2.5
		c-1.6,0-2.5-1.3-2.5-2.7l1.6-0.2c0.1,1,0.5,1.5,1,1.5c0.6,0,1-0.3,1-0.9c0-1.9-3.4-2.5-3.4-5.3c0-1.6,1-2.5,2.6-2.5
		c1.4,0,2.2,1,2.3,2.4L746.1-213z"/>
	<path class="st12" d="M752.3-212.1v-0.8c0-0.8-0.4-1.2-0.8-1.2c-0.7,0-0.9,0.4-0.9,1.1v5c0,0.7,0.2,1.1,0.9,1.1
		c0.6,0,0.8-0.4,0.8-1v-1.2h1.7v1.1c0,1.4-0.8,2.5-2.5,2.5c-1.8,0-2.6-1.1-2.6-2.5v-5.1c0-1.4,0.8-2.5,2.6-2.5
		c1.7,0,2.5,1.2,2.5,2.7v0.7L752.3-212.1L752.3-212.1z"/>
	<path class="st12" d="M755.6-213.1c0-1.4,0.8-2.5,2.6-2.5c1.8,0,2.6,1.1,2.6,2.5v5.1c0,1.4-0.8,2.5-2.6,2.5c-1.8,0-2.6-1.1-2.6-2.5
		V-213.1z M757.3-208c0,0.7,0.2,1.1,0.9,1.1c0.7,0,0.9-0.4,0.9-1.1v-5c0-0.7-0.2-1.1-0.9-1.1c-0.7,0-0.9,0.4-0.9,1.1V-208z"/>
	<path class="st12" d="M765.8-215.4h1.7l-2.1,9.9h-1.7l-2.1-9.9h1.7l1.2,6.9h0L765.8-215.4z"/>
	<path class="st12" d="M768.2-205.6v-9.9h4.5v1.5h-2.8v2.5h2.2v1.5h-2.2v2.9h3v1.5L768.2-205.6L768.2-205.6z"/>
	<path class="st12" d="M775.9-205.6h-1.7v-9.9h2.4c1.9,0,2.9,0.8,2.9,2.9c0,1.6-0.6,2.2-1.2,2.5l1.4,4.5h-1.7l-1.2-4.1
		c-0.2,0-0.6,0-0.9,0V-205.6z M775.9-211h0.6c0.9,0,1.3-0.3,1.3-1.5c0-1.2-0.3-1.5-1.3-1.5h-0.6V-211z"/>
	<path class="st12" d="M783.7-205.6H782v-4.1l-2-5.8h1.7l1.2,3.8h0l1.1-3.8h1.7l-2,5.8V-205.6z"/>
</g>
<path class="st19" d="M772.7-217.3"/>
<path class="st19" d="M690.5-217.3"/>
<radialGradient id="SVGID_11_" cx="68.9967" cy="-26.0374" r="110.3208" gradientTransform="matrix(0.7137 0 0 -0.7137 -1.3412 24.3014)" gradientUnits="userSpaceOnUse">
	<stop  offset="0" style="stop-color:#D3D5D6"/>
	<stop  offset="1" style="stop-color:#828487"/>
</radialGradient>
<path class="st20" d="M153.1,96.5c0-38.3-31-69.3-69.3-69.3s-69.3,31-69.3,69.3c0,38.3,31,69.3,69.3,69.3S153.1,134.8,153.1,96.5z"
	/>
<g>
	<path class="st21" d="M158.4,82.2h8.2c5.7,0,8.7,3.1,8.7,9.7v12.7c0,6.6-3,9.7-8.7,9.7h-8.2V82.2z M163.9,109.8h1.9
		c2.9,0,4-1.1,4-4.5V91.2c0-3.4-1-4.5-4-4.5h-1.9V109.8z"/>
	<path class="st21" d="M181,114.3V82.2h5.5v32.2L181,114.3L181,114.3z"/>
	<path class="st21" d="M202.2,90.1c-0.2-2.8-1.7-3.6-2.9-3.6c-1.8,0-2.8,1.2-2.8,3.2c0,5.5,11.2,8.1,11.2,16.8
		c0,5.3-3.6,8.2-8.7,8.2c-5.1,0-8.1-4.1-8.3-8.9l5.3-0.8c0.2,3.3,1.5,4.9,3.3,4.9c1.9,0,3.2-1,3.2-2.9c0-6.4-11.2-8.1-11.2-17.3
		c0-5.1,3.1-8,8.6-8c4.5,0,7.2,3.2,7.7,7.8L202.2,90.1z"/>
	<path class="st21" d="M222.6,92.9v-2.5c0-2.7-1.2-3.9-2.7-3.9c-2.2,0-2.9,1.2-2.9,3.6v16.3c0,2.4,0.7,3.6,2.9,3.6
		c2,0,2.7-1.2,2.7-3.3v-3.9h5.5v3.7c0,4.5-2.7,8.2-8.2,8.2c-5.8,0-8.5-3.7-8.5-8.2V89.9c0-4.5,2.7-8.2,8.5-8.2c5.5,0,8.2,4,8.2,8.8
		v2.4H222.6z"/>
	<path class="st21" d="M233.3,89.9c0-4.5,2.7-8.2,8.5-8.2c5.8,0,8.5,3.7,8.5,8.2v16.6c0,4.5-2.7,8.2-8.5,8.2c-5.8,0-8.5-3.7-8.5-8.2
		V89.9z M238.9,106.4c0,2.4,0.7,3.6,2.9,3.6s2.9-1.2,2.9-3.6V90.1c0-2.4-0.7-3.6-2.9-3.6s-2.9,1.2-2.9,3.6V106.4z"/>
	<path class="st21" d="M266.4,82.2h5.4l-6.7,32.2h-5.5l-6.7-32.2h5.4l4,22.3h0.1L266.4,82.2z"/>
	<path class="st21" d="M274.5,114.3V82.2h14.8V87H280v8.3h7.1v4.8H280v9.4h9.9v4.8H274.5z"/>
	<path class="st21" d="M299.4,114.3h-5.5V82.2h7.8c6.2,0,9.4,2.6,9.4,9.5c0,5.2-2,7.3-3.9,8.1l4.7,14.6h-5.6l-3.9-13.3
		c-0.7,0.1-1.9,0.1-2.9,0.1L299.4,114.3L299.4,114.3z M299.4,96.6h2c3,0,4.1-1.1,4.1-4.9s-1.1-4.9-4.1-4.9h-2V96.6z"/>
	<path class="st21" d="M324.8,114.3h-5.5V101l-6.7-18.8h5.6l3.9,12.2h0.1l3.7-12.2h5.6l-6.7,18.8L324.8,114.3L324.8,114.3z"/>
</g>
<path class="st22" d="M288.9,76.2"/>
<path class="st22" d="M21.2,76.2"/>
<g>
	<path class="st21" d="M83.8,172.3C42,172.3,8,138.3,8,96.5c0-41.8,34-75.8,75.8-75.8c32,0,60.4,19.9,71.2,49.9h7.6l0.8-0.3
		c-11.3-34.5-43.3-57.6-79.7-57.6C37.6,12.7,0,50.3,0,96.5c0,46.2,37.6,83.8,83.8,83.8c35.7,0,67.5-22.6,79.2-56.2h-8.6
		C143.1,153.1,115.2,172.3,83.8,172.3z"/>
</g>
<g>
	<path class="st1" d="M24.7,114.3V81.8h14.9v4.9h-9.4v8.4h7.2v4.9h-7.2v9.5h10v4.9C40.3,114.3,24.7,114.3,24.7,114.3z"/>
	<path class="st1" d="M67,81.8v32.5h-4.9V88.9h-0.1l-5,25.4h-2.7l-5-25.4h-0.1v25.4h-4.9V81.8h7.3l4,19h0.1l4-19H67z"/>
	<path class="st1" d="M72.2,114.3V81.8h8c6.9,0,10.1,2.7,10.1,9.6s-3.2,9.6-10.1,9.6h-2.4v13.3L72.2,114.3L72.2,114.3z M77.7,96.4
		h2.2c3.6,0,4.8-1.1,4.8-5c0-3.9-1.1-5-4.8-5h-2.2V96.4z"/>
	<path class="st1" d="M95.4,114.3V81.8h5.6v32.5C101,114.3,95.4,114.3,95.4,114.3z"/>
	<path class="st1" d="M112.8,114.3h-5.6V81.8h7.8c6.2,0,9.4,2.7,9.4,9.6c0,5.2-2,7.3-3.9,8.2l4.7,14.7h-5.7l-4-13.4
		c-0.7,0.1-1.9,0.1-2.9,0.1L112.8,114.3L112.8,114.3z M112.8,96.4h2c3,0,4.1-1.1,4.1-5c0-3.9-1.1-5-4.1-5h-2V96.4z"/>
	<path class="st1" d="M129.7,114.3V81.8h14.9v4.9h-9.4v8.4h7.2v4.9h-7.2v9.5h10v4.9C145.2,114.3,129.7,114.3,129.7,114.3z"/>
</g>
</svg>
